<svg width="37" height="37" viewBox="0 0 37 37" fill="none" xmlns="http://www.w3.org/2000/svg">
<g clip-path="url(#clip0_140_537)">
<path d="M32.375 18.5C32.3746 17.6494 32.2972 16.8006 32.1438 15.964L36.8351 13.2583L32.2101 5.24167L27.5172 7.95346C26.2215 6.84489 24.7326 5.98465 23.125 5.41587V0H13.875V5.41587C12.2675 5.98465 10.7785 6.84489 9.48281 7.95346L4.78998 5.24167L0.164978 13.2583L4.85627 15.964C4.54811 17.6406 4.54811 19.3594 4.85627 21.036L0.164978 23.7417L4.78998 31.7583L9.48281 29.0481C10.7786 30.1561 12.2676 31.0158 13.875 31.5841V37H23.125V31.5841C24.7326 31.0153 26.2215 30.1551 27.5172 29.0465L32.2101 31.7583L36.8351 23.7417L32.1438 21.036C32.2972 20.1994 32.3746 19.3506 32.375 18.5ZM23.125 18.5C23.125 19.4147 22.8538 20.3089 22.3456 21.0695C21.8374 21.8301 21.115 22.4229 20.2699 22.7729C19.4248 23.123 18.4949 23.2146 17.5977 23.0361C16.7006 22.8577 15.8765 22.4172 15.2297 21.7704C14.5828 21.1236 14.1423 20.2995 13.9639 19.4023C13.7854 18.5051 13.877 17.5752 14.2271 16.7301C14.5771 15.885 15.1699 15.1627 15.9305 14.6545C16.6911 14.1463 17.5853 13.875 18.5 13.875C19.7266 13.875 20.903 14.3623 21.7704 15.2296C22.6377 16.097 23.125 17.2734 23.125 18.5Z" fill="black"/>
</g>
<defs>
<clipPath id="clip0_140_537">
<rect width="37" height="37" fill="white"/>
</clipPath>
</defs>
</svg>
