<svg width="69" height="69" viewBox="0 0 69 69" fill="none" xmlns="http://www.w3.org/2000/svg">
<g clip-path="url(#clip0_140_524)">
<path d="M34.5 0C27.6766 0 21.0063 2.02339 15.3328 5.8143C9.65935 9.60521 5.23739 14.9934 2.62617 21.2974C0.0149484 27.6015 -0.668267 34.5383 0.662923 41.2306C1.99411 47.923 5.27992 54.0703 10.1048 58.8952C14.9297 63.7201 21.0771 67.0059 27.7694 68.3371C34.4617 69.6683 41.3985 68.9851 47.7026 66.3738C54.0066 63.7626 59.3948 59.3407 63.1857 53.6672C66.9766 47.9937 69 41.3235 69 34.5C68.9901 25.3531 65.3521 16.5836 58.8843 10.1157C52.4164 3.64788 43.6469 0.00989311 34.5 0V0ZM46 37.375H37.375V46C37.375 46.7625 37.0721 47.4938 36.5329 48.0329C35.9938 48.5721 35.2625 48.875 34.5 48.875C33.7375 48.875 33.0063 48.5721 32.4671 48.0329C31.9279 47.4938 31.625 46.7625 31.625 46V37.375H23C22.2375 37.375 21.5063 37.0721 20.9671 36.5329C20.4279 35.9938 20.125 35.2625 20.125 34.5C20.125 33.7375 20.4279 33.0062 20.9671 32.4671C21.5063 31.9279 22.2375 31.625 23 31.625H31.625V23C31.625 22.2375 31.9279 21.5062 32.4671 20.9671C33.0063 20.4279 33.7375 20.125 34.5 20.125C35.2625 20.125 35.9938 20.4279 36.5329 20.9671C37.0721 21.5062 37.375 22.2375 37.375 23V31.625H46C46.7625 31.625 47.4938 31.9279 48.033 32.4671C48.5721 33.0062 48.875 33.7375 48.875 34.5C48.875 35.2625 48.5721 35.9938 48.033 36.5329C47.4938 37.0721 46.7625 37.375 46 37.375Z" fill="black"/>
</g>
<defs>
<clipPath id="clip0_140_524">
<rect width="69" height="69" fill="white"/>
</clipPath>
</defs>
</svg>
