<svg width="37" height="37" viewBox="0 0 37 37" fill="none" xmlns="http://www.w3.org/2000/svg">
<path d="M6.16664 0H10.7916C14.1974 0 16.9583 2.76091 16.9583 6.16664V10.7916C16.9583 14.1974 14.1974 16.9583 10.7916 16.9583H6.16664C2.76091 16.9584 0 14.1974 0 10.7916V6.16664C0 2.76091 2.76091 0 6.16664 0Z" fill="black"/>
<path d="M26.2084 0H30.8334C34.2391 0 37 2.76091 37 6.16664V10.7916C37 14.1974 34.2391 16.9583 30.8334 16.9583H26.2084C22.8026 16.9583 20.0417 14.1974 20.0417 10.7916V6.16664C20.0416 2.76091 22.8026 0 26.2084 0Z" fill="black"/>
<path d="M6.16664 20.0416H10.7916C14.1974 20.0416 16.9583 22.8025 16.9583 26.2083V30.8333C16.9583 34.239 14.1974 36.9999 10.7916 36.9999H6.16664C2.76091 37 0 34.2391 0 30.8333V26.2083C0 22.8025 2.76091 20.0416 6.16664 20.0416Z" fill="black"/>
<path d="M26.2084 20.0416H30.8334C34.2391 20.0416 37 22.8025 37 26.2083V30.8333C37 34.2391 34.2391 37 30.8334 37H26.2084C22.8026 37 20.0417 34.2391 20.0417 30.8333V26.2083C20.0416 22.8025 22.8026 20.0416 26.2084 20.0416Z" fill="black"/>
</svg>
