<svg width="33" height="33" viewBox="0 0 33 33" fill="none" xmlns="http://www.w3.org/2000/svg">
<g clip-path="url(#clip0_130_549)">
<path d="M7.93938 17.5611L22.9394 32.5607C23.5251 33.1465 24.4749 33.1465 25.0607 32.5606C25.6464 31.9748 25.6464 31.0251 25.0606 30.4393L11.1213 16.5003L25.0607 2.56062C25.6464 1.97482 25.6464 1.02512 25.0606 0.43932C24.7678 0.14642 24.3839 1.91711e-05 24 1.92046e-05C23.6161 1.92382e-05 23.2322 0.14642 22.9393 0.439419L7.93938 15.4398C7.65797 15.7211 7.49998 16.1026 7.49998 16.5004C7.49998 16.8982 7.65797 17.2798 7.93938 17.5611Z" fill="black"/>
</g>
<defs>
<clipPath id="clip0_130_549">
<rect width="33" height="33" fill="white" transform="translate(33 33) rotate(180)"/>
</clipPath>
</defs>
</svg>
